<?xml version="1.0" encoding="UTF-8"?>
<svg version="1.1" xmlns="http://www.w3.org/2000/svg" width="2000" height="2000">
<path d="M0 0 C6.14079295 0.01029733 12.28154778 -0.00295137 18.42233506 -0.01297333 C29.14780661 -0.0273174 39.87317443 -0.02718251 50.59864428 -0.01678469 C62.08713108 -0.00571559 73.57557053 -0.00350922 85.06406024 -0.01173403 C85.79414398 -0.01225072 86.52422773 -0.01276741 87.27643522 -0.01329976 C90.25075148 -0.01543324 93.22506769 -0.01762812 96.19938386 -0.01990086 C123.79751229 -0.04097404 151.39560904 -0.04253048 178.99374202 -0.03131106 C205.57896924 -0.02050885 232.16418149 -0.01630036 258.74941066 -0.02139284 C260.42353162 -0.02170276 262.09765258 -0.02201139 263.77177354 -0.02231872 C270.50044519 -0.02356074 277.22911684 -0.02483542 283.95778848 -0.02615778 C302.76350011 -0.02982461 321.56921179 -0.03210789 340.37492373 -0.03330233 C341.2310696 -0.03335691 342.08721547 -0.0334115 342.96930515 -0.03346773 C370.22270919 -0.03510323 397.47610868 -0.0306056 424.72951129 -0.02190401 C426.05413303 -0.02148252 426.05413303 -0.02148252 427.40551481 -0.02105251 C441.74347531 -0.01647348 456.0814357 -0.01159527 470.41939609 -0.00669182 C527.27985733 0.01273318 584.1402809 0.0118283 641.00074199 -0.00761416 C655.33409372 -0.01249945 669.66744546 -0.01734387 684.0007973 -0.02190401 C684.88351384 -0.02218581 685.76623038 -0.0224676 686.67569591 -0.02275793 C713.90415921 -0.0313904 741.13261938 -0.03503832 768.36108401 -0.03330233 C769.21656318 -0.03324799 770.07204235 -0.03319366 770.95344514 -0.03313767 C789.73752162 -0.03188743 808.52159778 -0.02935224 827.30567393 -0.02566032 C834.02746628 -0.02434392 840.74925864 -0.02309157 847.47105101 -0.02185747 C849.14304993 -0.02154792 850.81504886 -0.021233 852.48704778 -0.02091269 C879.06039187 -0.01583588 905.63371952 -0.02151265 932.20706145 -0.03231327 C959.72824541 -0.04337683 987.24939151 -0.03922564 1014.77057008 -0.01818808 C1017.73410113 -0.01597896 1020.69763223 -0.01383211 1023.66116336 -0.01173403 C1024.752017 -0.01095279 1024.752017 -0.01095279 1025.86490809 -0.01015577 C1037.31639058 -0.00230841 1048.76782546 -0.00771378 1060.21930362 -0.01881005 C1071.51669337 -0.02946843 1082.81398446 -0.02520645 1094.11137146 -0.0067537 C1100.13853203 0.00269291 1106.16551498 0.00615987 1112.19266949 -0.00837763 C1199.30945495 -0.20276411 1282.46941142 19.95436523 1355.66871074 68.63887022 C1356.23139659 69.01237608 1356.79408244 69.38588194 1357.37381938 69.77070615 C1365.37111242 75.09374935 1373.10323504 80.67695696 1380.73121074 86.51387022 C1381.75806987 87.29504209 1381.75806987 87.29504209 1382.80567363 88.09199522 C1389.91148209 93.52383448 1396.7166163 99.15332429 1403.27417949 105.24043272 C1405.45220726 107.25571438 1407.6673036 109.20659458 1409.91871074 111.13887022 C1413.35725044 114.12220609 1416.5423822 117.30650244 1419.73511699 120.54902647 C1421.65228251 122.43617765 1423.62696396 124.20072397 1425.66871074 125.95137022 C1486.98605629 178.85260952 1525.53840297 263.05759323 1543.04371074 340.57637022 C1543.27421122 341.59690488 1543.50471171 342.61743955 1543.74219706 343.66889951 C1544.45175708 346.94309032 1545.09825162 350.22394552 1545.73121074 353.51387022 C1545.92022347 354.4925489 1545.92022347 354.4925489 1546.11305465 355.49099887 C1548.5625026 368.50369399 1549.15806259 381.10488395 1549.10873416 394.3220701 C1549.11187045 396.47044425 1549.11631928 398.61881681 1549.12194726 400.76718587 C1549.13356944 406.64385554 1549.12667127 412.52037625 1549.1166134 418.39704334 C1549.10897662 424.80079097 1549.11879361 431.20451645 1549.1263434 437.60826091 C1549.13768818 448.82299188 1549.13696084 460.03768361 1549.12920192 471.25241659 C1549.12093217 483.27897929 1549.11921994 495.30551658 1549.12541392 507.33208082 C1549.12580144 508.09325043 1549.12618896 508.85442004 1549.12658822 509.6386554 C1549.12818813 512.73907136 1549.12983427 515.8394873 1549.13153905 518.93990321 C1549.14738728 547.78303182 1549.14849181 576.62614342 1549.14009669 605.4692745 C1549.13984831 606.32307195 1549.13959992 607.17686941 1549.13934401 608.05653951 C1549.13909522 608.91171353 1549.13884643 609.76688755 1549.1385901 610.64797594 C1549.13101548 636.71922063 1549.12906872 662.79045829 1549.13265803 688.86170385 C1549.13289047 690.60870463 1549.13312194 692.35570542 1549.13335244 694.1027062 C1549.13428388 701.12353254 1549.13523988 708.14435889 1549.13623173 715.16518522 C1549.13898258 734.79083229 1549.14069452 754.41647939 1549.14159015 774.04212663 C1549.14163108 774.93579156 1549.14167202 775.82945648 1549.1417142 776.75020216 C1549.14294179 805.22057288 1549.1395627 833.69094117 1549.13304141 862.16131113 C1549.13283066 863.08452736 1549.13261992 864.00774358 1549.13240278 864.95893606 C1549.1289681 879.95056522 1549.12530963 894.94219432 1549.12163226 909.93382343 C1549.1070668 969.37660948 1549.10773704 1028.81937527 1549.12232402 1088.26216123 C1549.12598775 1103.24034464 1549.12962097 1118.21852805 1549.13304141 1133.19671152 C1549.13335843 1134.58020124 1549.13335843 1134.58020124 1549.13368185 1135.99164026 C1549.1401532 1164.42830987 1549.14289268 1192.86497779 1549.14159015 1221.30164812 C1549.14152902 1222.64125745 1549.14152902 1222.64125745 1549.14146665 1224.0079296 C1549.14052909 1243.61498669 1549.13862793 1263.2220436 1549.13585864 1282.82910051 C1549.13487126 1289.84516059 1549.13393201 1296.86122068 1549.1330065 1303.87728077 C1549.13277434 1305.62261937 1549.13253815 1307.36795797 1549.13229792 1309.11329657 C1549.12872094 1335.17252696 1549.13175913 1361.23174941 1549.13934401 1387.29097881 C1549.13971659 1388.57105402 1549.13971659 1388.57105402 1549.14009669 1389.87698934 C1549.14034474 1390.72879151 1549.14059279 1391.58059368 1549.14084835 1392.45820804 C1549.14913373 1421.22514537 1549.14605758 1449.99206231 1549.13025446 1478.75899673 C1549.1285975 1481.8522159 1549.12698737 1484.94543509 1549.12541392 1488.03865431 C1549.1250233 1488.79775452 1549.12463268 1489.55685473 1549.12423022 1490.33895798 C1549.11832784 1502.32767045 1549.12241697 1514.31635743 1549.13072094 1526.3050676 C1549.13868386 1538.11183659 1549.13557114 1549.91855962 1549.12167868 1561.72532342 C1549.11455794 1568.03327684 1549.11206973 1574.34113436 1549.12289662 1580.64908469 C1549.13266759 1586.40068977 1549.12835631 1592.15211487 1549.11335464 1597.90370712 C1549.11036183 1599.95878801 1549.11225464 1602.01388421 1549.11997246 1604.06895279 C1549.39182931 1682.06487948 1516.7222212 1762.54531889 1470.73121074 1824.51387022 C1470.20672343 1825.22237119 1469.68223613 1825.93087217 1469.14185527 1826.66084287 C1458.66219558 1840.74809944 1447.35898826 1853.96022226 1435.36011699 1866.76728819 C1433.61968527 1868.63345253 1431.89375556 1870.51238486 1430.16871074 1872.39277647 C1418.1971872 1885.38813892 1405.69582811 1897.36006253 1391.62378886 1908.05830381 C1389.59307273 1909.62011103 1387.59072409 1911.21389438 1385.59058574 1912.81465147 C1329.03747732 1957.8824861 1244.28422369 2000.84180924 1169.74379018 2000.64152072 C1168.42983258 2000.64399688 1168.42983258 2000.64399688 1167.08933039 2000.64652308 C1164.15171622 2000.65083969 1161.2141524 2000.64804937 1158.27653697 2000.64529798 C1156.14098517 2000.64694801 1154.00543367 2000.64903446 1151.86988267 2000.65151808 C1145.97757278 2000.6570895 1140.08527742 2000.65641144 1134.19296574 2000.65474049 C1127.79134205 2000.65401019 1121.38972249 2000.65903048 1114.98810056 2000.66331551 C1103.76004147 2000.67019613 1092.53198565 2000.67299331 1081.30392459 2000.67345045 C1069.25500978 2000.67395283 1057.20609833 2000.67659965 1045.15718463 2000.68185804 C1044.39633063 2000.68218817 1043.63547663 2000.68251831 1042.85156645 2000.68285844 C1039.75272483 2000.68420845 1036.65388322 2000.68557111 1033.55504161 2000.68695055 C996.86300613 2000.70325479 960.17097128 2000.70963964 923.47893279 2000.71439842 C905.20533346 2000.71678179 886.93173449 2000.72048532 868.65813544 2000.72443552 C810.03463254 2000.73710098 751.41112965 2000.74788413 692.7876254 2000.75127598 C689.98554437 2000.75143822 687.18346334 2000.75160378 684.3813823 2000.75177036 C678.76180401 2000.75210416 673.14222571 2000.75243464 667.52264741 2000.75276492 C660.94354643 2000.75315182 654.36444546 2000.75354142 647.78534449 2000.75393598 C645.90235493 2000.7540484 644.01936537 2000.75415982 642.13637581 2000.75427024 C581.67980876 2000.75781858 521.22325361 2000.77289192 460.7666911 2000.79620798 C417.32633428 2000.81295467 373.8859797 2000.82842688 330.44561961 2000.83294294 C329.55180841 2000.83303643 328.65799721 2000.83312991 327.73710082 2000.83322623 C308.11329343 2000.83524552 288.48948608 2000.83640136 268.8656786 2000.83675482 C261.84330197 2000.83689099 254.82092534 2000.83709998 247.79854872 2000.83734807 C246.0515903 2000.83740963 244.30463188 2000.83746795 242.55767346 2000.83752302 C214.74503453 2000.83844203 186.93240804 2000.84840067 159.1197732 2000.8629805 C131.0939995 2000.87761322 103.06824102 2000.88262803 75.04246418 2000.87456096 C71.16419408 2000.87344568 67.28592397 2000.87243499 63.40765384 2000.87148664 C62.26734813 2000.87120169 62.26734813 2000.87120169 61.10400595 2000.87091098 C49.09758436 2000.86818407 37.09119106 2000.87549761 25.08477562 2000.88706001 C13.26027749 2000.89823619 1.43582226 2000.89834769 -10.38867663 2000.88768982 C-16.70633209 2000.88230298 -23.02388983 2000.88157111 -29.34153715 2000.89419854 C-35.10207602 2000.90561598 -40.86243854 2000.9029277 -46.62297157 2000.88953147 C-48.68131483 2000.88711896 -50.73967204 2000.88960429 -52.79799988 2000.89792795 C-71.80597074 2000.96966915 -90.5561381 1998.95594307 -109.20628926 1995.26387022 C-110.27218282 1995.05480039 -111.33807637 1994.84573057 -112.43626973 1994.6303253 C-182.55629264 1980.3764021 -251.35158407 1945.92489973 -304.10472676 1897.49433897 C-306.16870134 1895.60546693 -308.2716918 1893.77440761 -310.39378926 1891.95137022 C-313.85125531 1888.94517986 -317.05942835 1885.74209056 -320.27269551 1882.47871397 C-322.18986103 1880.59156278 -324.16454248 1878.82701647 -326.20628926 1877.07637022 C-356.27403294 1851.13557176 -380.26395433 1815.04101418 -399.26878926 1780.51387022 C-399.98349385 1779.22803037 -399.98349385 1779.22803037 -400.71263692 1777.91621397 C-439.25520272 1708.12051656 -451.97289408 1630.01999995 -451.78265948 1551.24508095 C-451.77236215 1545.10428801 -451.78561085 1538.96353318 -451.79563281 1532.8227459 C-451.80997688 1522.09727435 -451.80984199 1511.37190653 -451.79944417 1500.64643667 C-451.78837507 1489.15794988 -451.7861687 1477.66951042 -451.79439351 1466.18102071 C-451.7949102 1465.45093697 -451.79542689 1464.72085323 -451.79595924 1463.96864573 C-451.79809272 1460.99432947 -451.8002876 1458.02001326 -451.80256034 1455.0456971 C-451.82363352 1427.44756867 -451.82518996 1399.84947191 -451.81397054 1372.25133894 C-451.80316833 1345.66611172 -451.79895984 1319.08089947 -451.80405232 1292.4956703 C-451.80436225 1290.82154934 -451.80467087 1289.14742838 -451.8049782 1287.47330742 C-451.80622022 1280.74463576 -451.8074949 1274.01596411 -451.80881726 1267.28729247 C-451.81248409 1248.48158084 -451.81476737 1229.67586917 -451.81596181 1210.87015722 C-451.81601639 1210.01401135 -451.81607098 1209.15786548 -451.81612721 1208.2757758 C-451.81776271 1181.02237176 -451.81326508 1153.76897228 -451.80456349 1126.51556966 C-451.8042825 1125.6324885 -451.8040015 1124.74940734 -451.80371199 1123.83956614 C-451.79913296 1109.50160565 -451.79425475 1095.16364525 -451.7893513 1080.82568487 C-451.7699263 1023.96522362 -451.77083118 967.10480005 -451.79027364 910.24433897 C-451.79515893 895.91098723 -451.80000335 881.57763549 -451.80456349 867.24428365 C-451.80484529 866.36156711 -451.80512708 865.47885057 -451.80541741 864.56938505 C-451.81404988 837.34092174 -451.8176978 810.11246157 -451.81596181 782.88399694 C-451.81590747 782.02851777 -451.81585314 781.1730386 -451.81579715 780.29163582 C-451.81454691 761.50755933 -451.81201172 742.72348318 -451.8083198 723.93940702 C-451.8070034 717.21761467 -451.80575105 710.49582231 -451.80451695 703.77402995 C-451.8042074 702.10203102 -451.80389248 700.4300321 -451.80357217 698.75803317 C-451.79849536 672.18468908 -451.80417213 645.61136143 -451.81497275 619.0380195 C-451.82603631 591.51683554 -451.82188512 563.99568945 -451.80084756 536.47451087 C-451.79863844 533.51097982 -451.79649159 530.54744873 -451.79439351 527.5839176 C-451.79387268 526.85668183 -451.79335186 526.12944607 -451.79281525 525.38017286 C-451.78496789 513.92869037 -451.79037326 502.47725549 -451.80146953 491.02577733 C-451.81212791 479.72838759 -451.80786593 468.43109649 -451.78941318 457.13370949 C-451.77996657 451.10654892 -451.77649961 445.07956597 -451.79103711 439.05241146 C-451.98595282 351.69844542 -432.18182209 265.01402897 -381.26878926 192.51387022 C-380.88658223 191.96859678 -380.5043752 191.42332334 -380.11058614 190.86152647 C-369.67605384 176.01174832 -358.86280136 161.50463824 -346.60472676 148.09590147 C-344.7060854 145.99723602 -342.84254087 143.87732954 -340.98753926 141.74043272 C-334.63454207 134.46418319 -327.93104076 127.50577821 -321.26878926 120.51387022 C-320.39351583 119.59476865 -319.51824239 118.67566709 -318.61644551 117.72871397 C-314.07943838 113.0768459 -309.26424701 108.93461612 -304.19066426 104.87715147 C-301.69332192 102.85724222 -299.25645687 100.78469103 -296.83226583 98.67817686 C-276.83734398 81.39025021 -254.38960789 66.28991995 -231.26878926 53.51387022 C-230.37804708 53.02064268 -229.48730489 52.52741514 -228.56957051 52.01924131 C-157.79040965 13.202937 -79.85237483 -0.19283656 0 0 Z " fill="#F4F0E8" transform="translate(451.26878926344216,-0.5138702169060707)"/>
<path d="M0 0 C4.66572058 0.0114441 9.33121425 0.00458622 13.99692726 -0.00688076 C50.11265766 -0.08228868 50.11265766 -0.08228868 67.08978271 2.00518799 C69.12999909 2.25138754 71.17004174 2.46081137 73.21582031 2.65478516 C106.38493773 5.85154722 138.65982892 13.66385796 170.20751953 24.26074219 C172.36362004 24.96432547 174.51986867 25.66745501 176.67626953 26.37011719 C213.38641774 38.51739175 248.22363104 55.1295058 281.20751953 75.26074219 C282.05878418 75.77733398 282.91004883 76.29392578 283.78710938 76.82617188 C305.64391347 90.14816991 325.80414465 105.61234168 345.20751953 122.26074219 C346.42217622 123.29872154 347.63702461 124.33647661 348.85205078 125.37402344 C355.02596218 130.65190533 355.02596218 130.65190533 357.49731445 132.7878418 C358.63451418 133.76724593 359.77792069 134.73949052 360.92749023 135.7043457 C367.26155177 141.09903725 373.09353543 146.99564136 378.9621582 152.88500977 C380.76614038 154.69435151 382.57540618 156.49828538 384.38525391 158.30175781 C390.20321603 164.11561436 395.93969377 169.93543467 401.20751953 176.26074219 C401.76076904 176.91792236 402.31401855 177.57510254 402.8840332 178.25219727 C410.10155728 186.8707641 417.16318388 195.5992325 423.93164062 204.57568359 C425.3120902 206.3988491 426.70675082 208.2106398 428.10205078 210.02246094 C446.73459212 234.35638542 461.9060108 261.20011935 475.58251953 288.57324219 C475.99516052 289.39878601 476.40780151 290.22432983 476.83294678 291.07489014 C492.8373364 323.20338755 504.10306726 356.29891256 512.20751953 391.26074219 C512.47161621 392.37852051 512.73571289 393.49629883 513.0078125 394.64794922 C520.99686628 428.7138279 524.03112532 461.52049426 524.16796875 496.453125 C524.19392093 502.34095895 524.27772233 508.22672577 524.37268066 514.11380005 C524.99879523 554.42407961 523.00217882 593.14167637 512.73223877 632.26190186 C512.18127579 634.36071383 511.63747971 636.46131517 511.09375 638.56201172 C490.38338604 718.12370852 453.67750941 790.26969411 396.47314453 853.74902344 C395.23494984 855.12171169 394.00319882 856.50077013 392.80493164 857.90844727 C387.77152204 863.79608492 382.34920829 869.27136477 376.86499023 874.73364258 C375.27292987 876.32034165 373.68628963 877.91231961 372.10009766 879.50488281 C366.64161331 884.96725588 361.10241304 890.26681134 355.20751953 895.26074219 C354.13586894 896.19801653 353.06550666 897.13676642 351.99658203 898.07714844 C338.37610918 909.93945096 324.09895905 921.03748708 309.20751953 931.26074219 C308.36511719 931.84049805 307.52271484 932.42025391 306.65478516 933.01757812 C291.89357419 943.13059983 276.84232913 952.55747892 261.20751953 961.26074219 C260.31371582 961.75993164 259.41991211 962.25912109 258.49902344 962.7734375 C228.84535955 979.17293655 197.42484433 991.8999108 165.20751953 1002.26074219 C163.3923584 1002.84758789 163.3923584 1002.84758789 161.54052734 1003.44628906 C132.52059908 1012.61396706 101.81283981 1017.59041337 71.70751953 1021.76074219 C70.66345947 1021.90866211 69.61939941 1022.05658203 68.54370117 1022.20898438 C46.93385992 1024.95061981 24.88144924 1024.50146817 3.13061523 1024.5559082 C-0.00695534 1024.56471207 -3.14407503 1024.5855076 -6.28149414 1024.61743164 C-94.87017974 1025.49688613 -184.72387487 1000.97343885 -301.79248047 929.26074219 C-302.60426758 928.68839844 -303.41605469 928.11605469 -304.25244141 927.52636719 C-319.78398768 916.53771944 -334.57201127 904.90028096 -348.79248047 892.26074219 C-349.77990234 891.38675781 -350.76732422 890.51277344 -351.78466797 889.61230469 C-359.47960293 882.65216458 -366.82172978 875.33519002 -374.16748047 868.01074219 C-374.68994354 867.49095795 -375.21240662 866.97117371 -375.7507019 866.43563843 C-381.65106279 860.55823118 -387.40453221 854.61803385 -392.79248047 848.26074219 C-393.77692033 847.13075688 -394.76256564 846.00182044 -395.74951172 844.87402344 C-406.97053708 831.94082438 -417.07234524 818.34884562 -426.79248047 804.26074219 C-427.51540283 803.21539307 -427.51540283 803.21539307 -428.25292969 802.14892578 C-465.37291883 748.2099236 -491.7290099 688.23026824 -505.79248047 624.26074219 C-506.02515625 623.20483887 -506.25783203 622.14893555 -506.49755859 621.06103516 C-509.29901218 608.06939391 -511.36066285 595.00123411 -513.04248047 581.82324219 C-513.20578857 580.55706055 -513.36909668 579.29087891 -513.53735352 577.98632812 C-516.02538627 557.44050623 -515.95224126 536.87997355 -515.92285156 516.21923828 C-515.91829701 513.00046949 -515.91828408 509.78175705 -515.92285156 506.56298828 C-515.95857452 481.36660841 -515.60477282 456.7668395 -511.66748047 431.82324219 C-511.51253113 430.82461151 -511.35758179 429.82598083 -511.19793701 428.79708862 C-508.53639198 411.72260634 -505.29723558 394.9567197 -500.79248047 378.26074219 C-500.44958984 376.9874707 -500.10669922 375.71419922 -499.75341797 374.40234375 C-481.33625975 306.65056616 -448.51463191 240.35949153 -402.28857422 187.15527344 C-399.97086361 184.46759963 -397.75167854 181.72516714 -395.54248047 178.94824219 C-385.91907718 167.17690881 -375.07855976 156.45648992 -364.35498047 145.69824219 C-363.43177002 144.77035889 -362.50855957 143.84247559 -361.55737305 142.88647461 C-357.01008931 138.34988746 -352.41282929 133.9430879 -347.53735352 129.76049805 C-345.10939385 127.67361457 -342.76801359 125.49658127 -340.41748047 123.32324219 C-335.37190175 118.7325927 -330.17803701 114.44377035 -324.79248047 110.26074219 C-323.67501095 109.36656327 -322.55784467 108.4720053 -321.44091797 107.57714844 C-312.17088462 100.23917256 -302.49681934 93.56750018 -292.66748047 87.01074219 C-291.73107727 86.38431824 -291.73107727 86.38431824 -290.77575684 85.74523926 C-221.39387229 39.42231996 -139.34342439 8.69830452 0 0 Z " fill="#F3EFE7" transform="translate(1308.79248046875,747.7392578125)"/>
<path d="M0 0 C0.9703418 -0.01305176 1.94068359 -0.02610352 2.94042969 -0.03955078 C8.80170723 -0.04658351 14.24056775 0.54622216 19.97802734 1.7565918 C22.62524876 2.30545699 22.62524876 2.30545699 26.375 2.1875 C26.375 2.8475 26.375 3.5075 26.375 4.1875 C27.48875 4.001875 28.6025 3.81625 29.75 3.625 C33.375 3.1875 33.375 3.1875 35.375 4.1875 C39.07016116 4.71921001 42.77333079 5.15001382 46.48046875 5.58984375 C50.2488203 6.16813642 53.72671981 7.09964918 57.375 8.1875 C58.48875 8.331875 59.6025 8.47625 60.75 8.625 C65.16930668 9.31075449 69.17929825 10.67476399 73.375 12.1875 C73.375 12.8475 73.375 13.5075 73.375 14.1875 C74.695 13.8575 76.015 13.5275 77.375 13.1875 C77.375 13.8475 77.375 14.5075 77.375 15.1875 C78.509375 15.27 79.64375 15.3525 80.8125 15.4375 C84.84706392 15.95673083 88.02396932 17.16565679 91.67578125 18.9140625 C94.2856547 20.14534867 96.93180651 21.25437198 99.59643555 22.3605957 C115.23350025 28.93736686 131.67202059 37.10417553 145.375 47.1875 C145.375 47.8475 145.375 48.5075 145.375 49.1875 C146.06207031 49.40148437 146.74914062 49.61546875 147.45703125 49.8359375 C151.24947955 51.59254675 153.96487017 54.04373542 157.0625 56.8125 C158.30598435 57.90513543 159.55078291 58.99627699 160.796875 60.0859375 C161.40466797 60.61799805 162.01246094 61.15005859 162.63867188 61.69824219 C164.96664908 63.69496054 167.38273277 65.5667283 169.8125 67.4375 C173.56113873 70.39339382 176.68445883 73.53966695 179.70703125 77.23046875 C181.4216839 79.29926355 181.4216839 79.29926355 183.69140625 81.47265625 C193.66000547 91.55733813 201.72814233 103.2103293 209.16113281 115.23144531 C210.27575411 117.02757279 211.41028927 118.80869232 212.5546875 120.5859375 C217.78758178 128.83232731 222.16358968 137.39074725 226.375 146.1875 C226.87257813 147.21359375 227.37015625 148.2396875 227.8828125 149.296875 C230.28909208 154.39761136 232.17778113 159.43256504 233.6953125 164.86328125 C234.31775286 166.99174111 235.05205511 169.00513777 235.875 171.0625 C238.62510333 178.18382019 240.13246936 185.67829306 241.375 193.1875 C241.61289172 194.24637091 241.61289172 194.24637091 241.85558933 195.32663316 C243.22593937 201.49415605 243.66474156 207.30762763 243.64674377 213.61274719 C243.65437403 215.11593869 243.65437403 215.11593869 243.66215843 216.64949769 C243.6767397 219.9855285 243.67735123 223.32141034 243.67797852 226.6574707 C243.68564886 229.06287417 243.69419695 231.46827498 243.70355225 233.87367249 C243.72182235 239.05821421 243.73412389 244.24273369 243.74109077 249.42730141 C243.75137639 257.01568232 243.77353347 264.60399516 243.79847669 272.1923404 C243.83910981 284.62894467 243.87150904 297.06555572 243.89819336 309.50219727 C243.95155481 334.34474223 244.0178371 359.1872487 244.09164369 384.02974117 C244.1126546 391.11374881 244.1328081 398.19775662 244.15080643 405.28177261 C244.22160939 432.95396573 244.3188896 460.62434196 244.69482422 488.29443359 C244.70856657 489.32358662 244.72230893 490.35273966 244.73646772 491.41307914 C244.86306101 500.83825035 244.9985063 510.26310087 245.1716466 519.68754148 C245.22996879 522.94433116 245.28067051 526.20121121 245.32980084 529.4581511 C245.36558944 531.62576057 245.41270158 533.79291837 245.46030235 535.96029472 C245.47907747 537.23568674 245.49785259 538.51107876 245.51719666 539.82511902 C245.53808318 540.91858233 245.55896971 542.01204565 245.58048916 543.13864422 C245.35391468 546.5003443 244.71095198 549.09606022 243.375 552.1875 C240.375 554.1875 240.375 554.1875 237.375 554.1875 C237.045 555.1775 236.715 556.1675 236.375 557.1875 C233.22121398 559.37762918 229.96575147 560.85379231 226.375 562.1875 C226.375 562.8475 226.375 563.5075 226.375 564.1875 C224.38899663 565.5415932 222.38682457 566.87207624 220.375 568.1875 C219.653125 568.93 218.93125 569.6725 218.1875 570.4375 C216.375 572.1875 216.375 572.1875 213.375 572.1875 C212.9728125 573.1465625 212.9728125 573.1465625 212.5625 574.125 C211.375 576.1875 211.375 576.1875 208.375 577.1875 C207.715 578.033125 207.055 578.87875 206.375 579.75 C205.715 580.554375 205.055 581.35875 204.375 582.1875 C203.385 582.1875 202.395 582.1875 201.375 582.1875 C201.1275 582.77015625 200.88 583.3528125 200.625 583.953125 C199.18974554 586.51864236 197.59836987 588.02474798 195.375 589.9375 C194.67375 590.55109375 193.9725 591.1646875 193.25 591.796875 C191.375 593.1875 191.375 593.1875 189.375 593.1875 C188.9728125 594.1465625 188.9728125 594.1465625 188.5625 595.125 C187.375 597.1875 187.375 597.1875 184.375 598.1875 C182.53100979 600.1341718 180.88030088 602.19550719 179.19140625 604.27734375 C177.32058045 606.2447283 175.77807075 607.00255387 173.375 608.1875 C171.6859225 609.8874352 171.6859225 609.8874352 170.125 611.875 C167.70302519 614.74721372 165.2472813 617.26610006 162.375 619.6875 C157.74358225 623.62017388 153.85990633 628.07577045 150.07421875 632.81640625 C147.31586527 636.25760945 144.37704622 638.98633733 140.92578125 641.6953125 C139.16792741 643.38674869 138.37446855 644.97722152 137.375 647.1875 C135.875 649.4375 135.875 649.4375 134.375 651.1875 C133.715 651.1875 133.055 651.1875 132.375 651.1875 C132.0346875 651.991875 132.0346875 651.991875 131.6875 652.8125 C129.6804879 656.44423618 127.14664705 660.30167648 123.375 662.1875 C122.88 663.033125 122.385 663.87875 121.875 664.75 C121.38 665.554375 120.885 666.35875 120.375 667.1875 C119.715 667.1875 119.055 667.1875 118.375 667.1875 C118.271875 667.785625 118.16875 668.38375 118.0625 669 C117.27005679 671.52141022 116.25556492 672.38215768 114.375 674.1875 C113.19925289 676.28739652 113.19925289 676.28739652 112.375 678.1875 C111.715 678.1875 111.055 678.1875 110.375 678.1875 C110.045 679.5075 109.715 680.8275 109.375 682.1875 C108.715 682.1875 108.055 682.1875 107.375 682.1875 C106.715 683.8375 106.055 685.4875 105.375 687.1875 C104.715 687.1875 104.055 687.1875 103.375 687.1875 C103.271875 687.826875 103.16875 688.46625 103.0625 689.125 C102.835625 689.805625 102.60875 690.48625 102.375 691.1875 C101.385 691.5175 100.395 691.8475 99.375 692.1875 C99.2925 692.909375 99.21 693.63125 99.125 694.375 C98.21786169 697.77676868 96.77489121 699.64216084 94.375 702.1875 C93.715 702.1875 93.055 702.1875 92.375 702.1875 C92.28089844 702.72890625 92.18679688 703.2703125 92.08984375 703.828125 C91.16360747 706.88521088 89.6504644 709.24519005 87.9375 711.9375 C87.32003906 712.92234375 86.70257812 713.9071875 86.06640625 714.921875 C85.22916016 716.04335937 85.22916016 716.04335937 84.375 717.1875 C83.715 717.1875 83.055 717.1875 82.375 717.1875 C82.230625 717.80625 82.08625 718.425 81.9375 719.0625 C81.375 721.1875 81.375 721.1875 80.375 723.1875 C79.715 723.1875 79.055 723.1875 78.375 723.1875 C78.045 724.8375 77.715 726.4875 77.375 728.1875 C76.715 728.1875 76.055 728.1875 75.375 728.1875 C75.1275 729.095 74.88 730.0025 74.625 730.9375 C73.375 734.1875 73.375 734.1875 71.51953125 735.9609375 C68.89507303 738.68578483 67.40926673 741.68237807 65.8125 745.0625 C65.52181641 745.66191406 65.23113281 746.26132812 64.93164062 746.87890625 C64.07482286 748.6462127 63.22484315 750.41682912 62.375 752.1875 C61.37863305 754.18931241 60.37988399 756.18994946 59.375 758.1875 C58.715 758.1875 58.055 758.1875 57.375 758.1875 C57.27316406 758.88230469 57.17132812 759.57710937 57.06640625 760.29296875 C56.25782994 763.67802552 54.90824287 766.41037019 53.3125 769.5 C52.76464844 770.56863281 52.21679688 771.63726563 51.65234375 772.73828125 C51.02005859 773.95064453 51.02005859 773.95064453 50.375 775.1875 C49.715 775.1875 49.055 775.1875 48.375 775.1875 C48.20484375 775.744375 48.0346875 776.30125 47.859375 776.875 C46.34595547 781.64066151 44.5872852 786.04342789 42.2421875 790.4609375 C41.24027659 792.3529848 41.24027659 792.3529848 40.375 795.1875 C39.715 795.1875 39.055 795.1875 38.375 795.1875 C38.25125 796.074375 38.1275 796.96125 38 797.875 C37.43087264 800.89137502 36.60885564 803.39076054 35.375 806.1875 C34.715 806.1875 34.055 806.1875 33.375 806.1875 C33.705 807.1775 34.035 808.1675 34.375 809.1875 C33.715 809.1875 33.055 809.1875 32.375 809.1875 C32.25125 809.703125 32.1275 810.21875 32 810.75 C31.79375 811.554375 31.5875 812.35875 31.375 813.1875 C30.9109375 815.0128125 30.9109375 815.0128125 30.4375 816.875 C30.086875 817.968125 29.73625 819.06125 29.375 820.1875 C28.715 820.5175 28.055 820.8475 27.375 821.1875 C26.93007366 823.27523127 26.48958484 825.36399709 26.0703125 827.45703125 C25.02032262 831.58030611 23.29353087 835.36339325 21.609375 839.26171875 C19.01732661 845.40552965 17.15056097 851.76816419 15.375 858.1875 C14.715 858.1875 14.055 858.1875 13.375 858.1875 C13.56707031 858.76628906 13.75914062 859.34507812 13.95703125 859.94140625 C14.44429529 862.55988124 14.07820435 863.69404883 13.0625 866.125 C12.78019531 866.82238281 12.49789063 867.51976562 12.20703125 868.23828125 C11.55595863 869.76356405 10.90328676 871.28816422 10.25 872.8125 C9.28589429 875.19697029 9.28589429 875.19697029 8.9375 877.875 C8.0078097 883.34984286 6.27968533 888.62359925 4.43359375 893.85546875 C3.00546908 898.35063608 1.947244 902.90884615 0.875 907.5 C0.55595703 908.84868164 0.55595703 908.84868164 0.23046875 910.22460938 C-0.39483858 912.87737025 -1.01159978 915.53196291 -1.625 918.1875 C-1.79451172 918.91308105 -1.96402344 919.63866211 -2.13867188 920.38623047 C-3.67796658 927.11369016 -4.89263107 933.89826752 -6.125 940.6875 C-8.49826614 953.76203894 -8.49826614 953.76203894 -9.68359375 958.765625 C-10.94066195 964.26387707 -11.53618574 969.84102195 -12.1875 975.4375 C-12.437116 977.54707519 -12.68835928 979.65645861 -12.94140625 981.765625 C-13.04912354 982.68762695 -13.15684082 983.60962891 -13.26782227 984.55957031 C-13.61730906 987.13091399 -14.08794785 989.64933362 -14.625 992.1875 C-22.91142225 993.64125829 -30.36417099 992.46537275 -38.625 991.1875 C-41.06231495 990.85281629 -43.49980846 990.51942968 -45.9375 990.1875 C-72.46579724 986.34670276 -72.46579724 986.34670276 -75.625 983.1875 C-76.95049087 982.86204465 -78.28610935 982.57748877 -79.625 982.3125 C-88.22347561 980.46803205 -96.38806708 977.22053885 -104.625 974.1875 C-104.625 973.5275 -104.625 972.8675 -104.625 972.1875 C-105.615 972.105 -106.605 972.0225 -107.625 971.9375 C-111.43915882 971.40475312 -114.38613624 969.97969365 -117.7578125 968.17578125 C-119.98284589 966.99809621 -122.26936385 966.07086356 -124.625 965.1875 C-124.625 964.5275 -124.625 963.8675 -124.625 963.1875 C-125.43710937 963.02507812 -125.43710937 963.02507812 -126.265625 962.859375 C-137.87844418 959.55241325 -148.2235813 951.56918768 -157.87841797 944.57714844 C-161.13471002 942.19496006 -161.13471002 942.19496006 -164.625 940.1875 C-164.625 939.5275 -164.625 938.8675 -164.625 938.1875 C-165.32625 937.960625 -166.0275 937.73375 -166.75 937.5 C-170.22508743 935.91354704 -172.79264196 933.68745416 -175.625 931.1875 C-176.18316406 930.73246094 -176.74132812 930.27742188 -177.31640625 929.80859375 C-181.25002847 926.57897551 -184.51077762 923.08544588 -187.79296875 919.203125 C-189.6967503 917.10855937 -191.70992229 915.32072348 -193.875 913.5 C-196.88441117 910.95846274 -198.67277272 908.62713855 -200.625 905.1875 C-201.470625 904.5275 -202.31625 903.8675 -203.1875 903.1875 C-205.85850161 900.99590894 -206.62952322 899.44542401 -207.625 896.1875 C-208.285 896.1875 -208.945 896.1875 -209.625 896.1875 C-210.80859375 894.54296875 -210.80859375 894.54296875 -212.0625 892.375 C-213.34683325 890.16465845 -214.42564226 888.37653804 -216.28515625 886.61328125 C-217.625 885.1875 -217.625 885.1875 -217.625 882.1875 C-218.285 881.8575 -218.945 881.5275 -219.625 881.1875 C-222.625 877.72596154 -222.625 877.72596154 -222.625 874.1875 C-223.285 873.8575 -223.945 873.5275 -224.625 873.1875 C-237.66912746 854.38861042 -245.4469659 831.29204895 -250.625 809.1875 C-250.78871094 808.49140625 -250.95242188 807.7953125 -251.12109375 807.078125 C-251.64542976 804.78567919 -252.13865331 802.48829394 -252.625 800.1875 C-252.81320312 799.34316406 -253.00140625 798.49882813 -253.1953125 797.62890625 C-254.48892271 791.35216373 -254.77664571 785.43986623 -254.59765625 779.03515625 C-254.51030828 776.31583783 -254.51030828 776.31583783 -255.11887466 774.26116962 C-255.63597235 772.14254468 -255.75013425 770.33779716 -255.75034916 768.16112989 C-255.75285268 767.36309652 -255.7553562 766.56506314 -255.75793558 765.74284694 C-255.75559442 764.8702182 -255.75325325 763.99758945 -255.75084114 763.09851742 C-255.75229458 762.16450693 -255.75374802 761.23049644 -255.75524551 760.26818261 C-255.75891666 757.11496514 -255.75541391 753.96179567 -255.75198364 750.80857849 C-255.75313502 748.53449909 -255.75472265 746.26041988 -255.75671089 743.98634106 C-255.76090192 737.71889812 -255.75881452 731.45147032 -255.75572467 725.18402731 C-255.75370126 719.12493603 -255.75635589 713.06584797 -255.75887203 707.00675732 C-255.76414384 693.845506 -255.76367899 680.68425952 -255.76079312 667.52300773 C-255.75828014 656.00617825 -255.75761966 644.48935054 -255.75881577 632.97252083 C-255.75889215 632.20935409 -255.75896854 631.44618734 -255.75904724 630.65989433 C-255.75935856 627.56216535 -255.75967696 624.46443637 -255.760007 621.36670738 C-255.76306768 592.29334466 -255.76028982 563.21998503 -255.7549101 534.14662278 C-255.75016384 508.29997668 -255.75058933 482.45333551 -255.75537109 456.60668945 C-255.76072211 427.58587301 -255.76285112 398.56505931 -255.75975883 369.54424244 C-255.7594381 366.45238276 -255.75912526 363.36052309 -255.75881577 360.26866341 C-255.75873669 359.50733576 -255.75865761 358.74600812 -255.75857614 357.96160994 C-255.75743722 346.44953342 -255.75877162 334.93745886 -255.76129532 323.42538261 C-255.76414949 310.3403851 -255.76345062 297.2553932 -255.75801457 284.17039638 C-255.7553305 277.48864031 -255.75437124 270.80689205 -255.75766373 264.12513542 C-255.7606282 258.01688503 -255.75903131 251.90865401 -255.75368617 245.80040539 C-255.75256265 243.58245144 -255.75315176 241.36449588 -255.75556196 239.14654296 C-255.75857234 236.14788534 -255.75551471 233.14929543 -255.75084114 230.15064144 C-255.75318231 229.27567153 -255.75552347 228.40070163 -255.75793558 227.49921748 C-255.7473748 224.14337424 -255.69369473 221.3935842 -254.625 218.1875 C-254.60506585 216.20832407 -254.63234161 214.22850759 -254.6875 212.25 C-254.7475027 204.56108252 -253.80719474 197.30310741 -251.68359375 189.91015625 C-250.46848904 185.63711275 -249.50347558 181.3399368 -248.5625 177 C-248.21790825 175.42307642 -247.87287154 173.84624999 -247.52734375 172.26953125 C-247.37773193 171.58093018 -247.22812012 170.8923291 -247.07397461 170.18286133 C-246.622347 168.17570935 -246.1318994 166.18134149 -245.625 164.1875 C-244.965 164.1875 -244.305 164.1875 -243.625 164.1875 C-243.686875 163.32125 -243.74875 162.455 -243.8125 161.5625 C-243.59503322 157.64809798 -242.45107917 155.63676065 -240.625 152.1875 C-239.85492192 149.818029 -239.14363725 147.4412288 -238.46875 145.04296875 C-238.1903125 144.43066406 -237.911875 143.81835938 -237.625 143.1875 C-236.635 142.8575 -235.645 142.5275 -234.625 142.1875 C-234.955 141.1975 -235.285 140.2075 -235.625 139.1875 C-235.295 138.5275 -234.965 137.8675 -234.625 137.1875 C-233.965 137.1875 -233.305 137.1875 -232.625 137.1875 C-232.295 135.5375 -231.965 133.8875 -231.625 132.1875 C-230.965 132.1875 -230.305 132.1875 -229.625 132.1875 C-229.7075 131.48625 -229.79 130.785 -229.875 130.0625 C-229.54053181 126.21611582 -227.99003039 124.17856784 -225.625 121.1875 C-224.965 121.1875 -224.305 121.1875 -223.625 121.1875 C-223.439375 120.011875 -223.439375 120.011875 -223.25 118.8125 C-222.625 116.1875 -222.625 116.1875 -220.625 114.1875 C-220.17125 113.23875 -219.7175 112.29 -219.25 111.3125 C-217.66174705 108.2581674 -216.06766159 106.55136605 -213.625 104.1875 C-212.94231862 102.86229497 -212.2742959 101.52937818 -211.625 100.1875 C-210.625 99.1875 -209.625 98.1875 -208.625 97.1875 C-208.13 95.7025 -208.13 95.7025 -207.625 94.1875 C-206.635 94.1875 -205.645 94.1875 -204.625 94.1875 C-204.33625 93.61 -204.0475 93.0325 -203.75 92.4375 C-203.37875 91.695 -203.0075 90.9525 -202.625 90.1875 C-202.3775 89.548125 -202.13 88.90875 -201.875 88.25 C-200.625 86.1875 -200.625 86.1875 -197.6875 83.75 C-194.78562539 81.32190084 -193.49260204 79.3891035 -191.625 76.1875 C-190.635 75.8575 -189.645 75.5275 -188.625 75.1875 C-187.41617904 73.18733534 -187.41617904 73.18733534 -186.625 71.1875 C-185.965 71.1875 -185.305 71.1875 -184.625 71.1875 C-184.41875 70.61 -184.2125 70.0325 -184 69.4375 C-182.13330178 66.38290291 -179.6108093 65.09333572 -176.625 63.1875 C-176.13 62.1975 -176.13 62.1975 -175.625 61.1875 C-174.965 61.1875 -174.305 61.1875 -173.625 61.1875 C-173.13 60.1975 -173.13 60.1975 -172.625 59.1875 C-167.0297619 54.1875 -167.0297619 54.1875 -164.625 54.1875 C-164.295 53.1975 -163.965 52.2075 -163.625 51.1875 C-160.33943217 48.70507097 -157.62551306 47.0765029 -153.625 46.1875 C-153.13 45.1975 -153.13 45.1975 -152.625 44.1875 C-151.635 43.8575 -150.645 43.5275 -149.625 43.1875 C-149.625 42.5275 -149.625 41.8675 -149.625 41.1875 C-149.11710938 40.94515625 -148.60921875 40.7028125 -148.0859375 40.453125 C-144.7854981 38.84616949 -141.68552917 37.22785278 -138.625 35.1875 C-135.09446301 32.83380867 -131.43712486 31.03253972 -127.625 29.1875 C-126.27028685 28.50107747 -124.91611342 27.81358864 -123.5625 27.125 C-117.36097322 24.03625507 -111.0012691 21.562693 -104.48046875 19.2421875 C-100.83760483 17.89667005 -97.27714934 16.37813015 -93.71875 14.82421875 C-91.625 14.1875 -91.625 14.1875 -88.625 15.1875 C-88.295 14.5275 -87.965 13.8675 -87.625 13.1875 C-85.28875701 12.45146426 -83.00129837 11.82363837 -80.625 11.25 C-76.37087875 10.18135596 -72.17592651 9.10015659 -68.0625 7.5625 C-63.09442677 5.81798573 -57.96712296 5.27001047 -52.76171875 4.6171875 C-50.28853108 4.27839467 -48.02556986 3.83228116 -45.625 3.1875 C-30.72133936 -0.08465877 -15.18836104 0.11617697 0 0 Z " fill="#3D3C3A" transform="translate(713.625,214.8125)"/>
<path d="M0 0 C3.96930989 -0.02465881 7.93859034 -0.04284023 11.90795898 -0.05493164 C13.25920386 -0.05997057 14.61044326 -0.06680177 15.96166992 -0.07543945 C17.90020434 -0.08752419 19.838778 -0.09269828 21.77734375 -0.09765625 C23.52905884 -0.10551147 23.52905884 -0.10551147 25.31616211 -0.11352539 C28 0 28 0 29 1 C30.03125 0.979375 31.0625 0.95875 32.125 0.9375 C36.13462701 1.0021714 39.19893504 1.78079048 43 3 C44.33130115 3.34135927 45.66358148 3.67925956 47 4 C47 4.66 47 5.32 47 6 C48.51980469 6.14888672 48.51980469 6.14888672 50.0703125 6.30078125 C54.1979276 7.03521773 57.15624592 8.27752767 60.875 10.1875 C61.78245972 10.6518042 61.78245972 10.6518042 62.70825195 11.12548828 C67.0931978 13.41161175 71.21096391 15.96156883 75.23046875 18.8359375 C77.10541663 20.17802262 77.10541663 20.17802262 80 21 C82.54869773 23.47299384 84.73771015 26.26562074 87 29 C87.58265625 29.66128906 88.1653125 30.32257812 88.765625 31.00390625 C102.0760958 46.8025957 105.10897708 65.8319745 105.18945312 85.8359375 C105.20189308 87.52893478 105.20189308 87.52893478 105.21458435 89.25613403 C105.23188277 91.69116882 105.24707664 94.1262193 105.26036072 96.5612793 C105.2816202 100.44258617 105.30863059 104.32381736 105.33703613 108.20507812 C105.39175175 115.77220371 105.43993877 123.33936325 105.48697662 130.90653992 C105.55063461 141.13932853 105.61756034 151.37208023 105.69187927 161.60479736 C105.71791484 165.37893477 105.7390603 169.15307693 105.7598877 172.92724609 C105.83649874 184.78560447 106.02323948 196.63265873 106.43945312 208.484375 C106.47552422 209.55554565 106.51159531 210.62671631 106.54875946 211.73034668 C107.78049402 243.67592796 114.09372636 275.48179148 129 304 C129.58863362 305.20247812 130.17328084 306.40691592 130.75390625 307.61328125 C143.78458138 334.39254523 159.7487957 358.44494765 181.22583008 379.15283203 C181.84611084 379.75595215 182.4663916 380.35907227 183.10546875 380.98046875 C183.66387451 381.51567139 184.22228027 382.05087402 184.79760742 382.60229492 C186 384 186 384 186 386 C186.57234375 386.24363281 187.1446875 386.48726562 187.734375 386.73828125 C190.40433538 388.22517298 192.13829007 389.98083908 194.25 392.1875 C198.33222641 396.35629891 202.52714291 400.25567645 207 404 C207.70125 404.59039063 208.4025 405.18078125 209.125 405.7890625 C220.41028234 415.05366929 232.57129055 423.35406618 245 431 C246.37004262 431.86158025 247.7398111 432.72359649 249.109375 433.5859375 C269.49909416 446.63767752 269.49909416 446.63767752 292 455 C292 455.66 292 456.32 292 457 C292.928125 457.144375 293.85625 457.28875 294.8125 457.4375 C298 458 298 458 301 459 C301 459.66 301 460.32 301 461 C301.99 460.67 302.98 460.34 304 460 C304 460.66 304 461.32 304 462 C305.051875 462.12375 306.10375 462.2475 307.1875 462.375 C310.54693969 462.92572782 312.89351023 463.72085715 316 465 C318.09958072 465.72181319 320.20393509 466.42986871 322.3125 467.125 C323.38113281 467.47820312 324.44976563 467.83140625 325.55078125 468.1953125 C326.35902344 468.46085937 327.16726563 468.72640625 328 469 C328 469.66 328 470.32 328 471 C328.99 470.67 329.98 470.34 331 470 C333.015625 470.48828125 333.015625 470.48828125 335.25 471.3125 C336.054375 471.59738281 336.85875 471.88226562 337.6875 472.17578125 C338.450625 472.44777344 339.21375 472.71976563 340 473 C348.1870861 475.51910342 356.59576317 477.3597679 365 479 C365 479.66 365 480.32 365 481 C365.721875 480.814375 366.44375 480.62875 367.1875 480.4375 C370.21499197 479.96655681 372.02654164 480.35265783 375 481 C376.95755024 481.3173685 378.91593089 481.62964628 380.875 481.9375 C384.30826428 482.49640349 387.46832102 483.13819309 390.8125 484.125 C394.32266059 485.0885735 397.37828454 485.07243431 401 485 C401.33 485.33 401.66 485.66 402 486 C404.68539553 486.07319647 407.35745779 485.99627999 410.04296875 485.9375 C413 486 413 486 415.78344727 486.47265625 C419.00691875 487.00113431 422.16340545 487.28360594 425.421875 487.5 C426.61167969 487.5825 427.80148437 487.665 429.02734375 487.75 C431.52466965 487.91771129 434.02206678 488.08436505 436.51953125 488.25 C437.70417969 488.3325 438.88882812 488.415 440.109375 488.5 C441.19186523 488.5721875 442.27435547 488.644375 443.38964844 488.71875 C446 489 446 489 448 490 C448.30859375 492.67578125 448.30859375 492.67578125 448.4375 496.3125 C448.74906759 502.75077079 449.47455792 509.06475759 450.4375 515.4375 C450.55988037 516.26483643 450.68226074 517.09217285 450.80834961 517.94458008 C451.49239286 522.36794108 452.38821751 526.65066521 453.52026367 530.97875977 C454.40218249 534.69448794 454.8905036 538.47322978 455.4375 542.25 C456.39534877 548.57107299 457.54349435 554.7248789 459.19921875 560.90625 C459.96865086 563.87888526 460.63571799 566.86332961 461.27783203 569.86572266 C466.16516722 592.60421386 472.5454559 614.50783591 480.62451172 636.29101562 C481.94888055 639.86215715 483.25870154 643.43835433 484.56640625 647.015625 C485.35540207 649.15675488 486.14569132 651.29740874 486.9375 653.4375 C487.29054199 654.39551514 487.64358398 655.35353027 488.00732422 656.34057617 C489.75498747 660.99752566 491.6452559 665.46262122 493.93041992 669.87963867 C495.66864443 673.32553683 497.21968372 676.85503253 498.80541992 680.37304688 C503.19725817 690.11096486 507.79006036 699.65621235 512.87890625 709.046875 C515.05614292 713.06853504 517.09842061 717.15083821 519.125 721.25 C527.48271673 738.0591801 536.72437272 753.97350079 548 769 C553.38253715 776.32433853 558.65047034 783.7257982 563.87597656 791.16259766 C564.36678711 791.86046387 564.85759766 792.55833008 565.36328125 793.27734375 C566.05284912 794.25936768 566.05284912 794.25936768 566.75634766 795.26123047 C567.75573197 796.65848509 568.79894956 798.02433743 569.85546875 799.37890625 C571 801 571 801 571 803 C571.66 803 572.32 803 573 803 C574.41015625 804.58203125 574.41015625 804.58203125 576.0625 806.8125 C581.97683254 814.63269853 588.15788279 822.21301955 594.78515625 829.44140625 C596 831 596 831 596 833 C596.66 833 597.32 833 598 833 C599.41015625 834.3984375 599.41015625 834.3984375 601.0625 836.375 C606.80895823 843.12918786 612.63805434 849.81477505 619 856 C620.11375 857.1446875 620.11375 857.1446875 621.25 858.3125 C626.04307497 862.99664145 631.06537081 867.44065903 636.25 871.6875 C639.00197592 874.00166157 641.56665727 876.35195056 644 879 C644 879.66 644 880.32 644 881 C644.58910156 881.25910156 645.17820312 881.51820313 645.78515625 881.78515625 C648.15357165 883.08423419 649.60315957 884.4675963 651.4375 886.4375 C654.11358873 889.20488386 656.66090465 891.06683953 660 893 C665.71923744 898.06932409 665.71923744 898.06932409 666 902 C664.24926435 903.75073565 661.79684684 903.16922907 659.41547966 903.20321465 C658.199437 903.22273146 656.98339433 903.24224828 655.73050189 903.26235652 C654.36817821 903.27899992 653.0058522 903.29545356 651.64352417 903.31173706 C650.21691228 903.33209314 648.79030496 903.35277134 647.36370206 903.37374806 C643.45004753 903.42951995 639.53633369 903.47800494 635.62255874 903.52447405 C633.13264247 903.55433595 630.64275146 903.58583071 628.1528604 903.61772132 C590.78225728 904.09204049 553.4128349 904.14885211 516.03972352 904.13530041 C509.44047161 904.13297053 502.84122227 904.13274845 496.24197006 904.13381577 C495.28361898 904.133969 494.32526789 904.13412223 493.33787587 904.13428011 C491.38847702 904.13459997 489.43907817 904.13492418 487.48967932 904.1352527 C469.49795579 904.13805966 451.50623747 904.13489305 433.51451479 904.12945233 C418.14541617 904.12494911 402.77632507 904.12579814 387.40722656 904.13037109 C369.37239391 904.13573501 351.33756569 904.13782599 333.30273235 904.13475883 C331.37914777 904.13444038 329.45556319 904.13412601 327.53197861 904.13381577 C326.58641923 904.13366149 325.64085986 904.13350721 324.66664717 904.13334826 C318.06327724 904.13249148 311.45991017 904.1339269 304.85654068 904.13629532 C296.83117491 904.1391121 288.8058189 904.13831398 280.78045423 904.13301457 C276.70262017 904.13040889 272.62480235 904.12931914 268.54696846 904.13266373 C240.50352093 904.15356069 240.50352093 904.15356069 228.46456909 903.58956909 C227.71098275 903.5555465 226.95739641 903.52152392 226.18097413 903.48647034 C208.30532416 902.47864796 189.78404872 895.9167551 177 883 C168.26878875 872.70300922 168.26878875 872.70300922 167 867 C166.34 866.67 165.68 866.34 165 866 C163 863 163 863 163 859 C162.34 858.67 161.68 858.34 161 858 C160.49276155 856.37683695 159.99782208 854.74853225 159.57421875 853.1015625 C158.94895371 850.81317754 158.17086492 848.6094001 157.375 846.375 C156.2606563 843.09325779 155.80066879 840.48829618 156 837 C155.76023437 836.13375 155.76023437 836.13375 155.515625 835.25 C154.86196403 832.39766123 154.86787696 829.73650598 154.875 826.8125 C154.87242187 825.74644531 154.86984375 824.68039062 154.8671875 823.58203125 C155 821 155 821 156 820 C156.28484531 817.51777659 156.44806553 815.03531145 156.62109375 812.54296875 C157.00379712 809.97451622 157.7125828 808.2360404 159 806 C159.66 806 160.32 806 161 806 C160.67 805.01 160.34 804.02 160 803 C161.19303648 799.90895094 162.51913428 796.96173145 164 794 C164.66 794 165.32 794 166 794 C166.2475 792.7625 166.495 791.525 166.75 790.25 C167.71599741 786.40627606 168.9000404 784.56853795 172 782 C174.41667229 779.64227093 176.69602744 777.41655499 178.6875 774.6875 C179.120625 774.130625 179.55375 773.57375 180 773 C180.66 773 181.32 773 182 773 C182.33 772.34 182.66 771.68 183 771 C186.5580675 767.64525064 189.133091 766.45273572 194 766 C194 765.34 194 764.68 194 764 C197.61973402 762.68373308 200.09567131 762 204 762 C204.33 761.34 204.66 760.68 205 760 C227.45104091 753.19479387 253.25044285 755.72392587 276.44647217 755.80438232 C280.30159505 755.81506846 284.15668091 755.81485354 288.01181602 755.81424427 C291.86169334 755.81452434 295.7115502 755.82013697 299.56142044 755.82724571 C301.33615593 755.83030681 303.1108936 755.83236807 304.88563156 755.83313942 C325.26880499 755.85167494 345.61566578 756.50282112 366 757 C366 714.76 366 672.52 366 629 C359.40877508 626.10993279 359.40877508 626.10993279 353 626 C352.67 625.67 352.34 625.34 352 625 C350.845 625.020625 349.69 625.04125 348.5 625.0625 C343.78510683 625.13021839 339.55087384 624.13339253 335 623 C333.33465333 622.66013333 331.66870487 622.32297514 330 622 C330 621.34 330 620.68 330 620 C329.113125 620.185625 328.22625 620.37125 327.3125 620.5625 C322.18919925 621.23916236 317.65579188 619.69322212 312.6875 618.4375 C311.61886719 618.16808594 310.55023437 617.89867187 309.44921875 617.62109375 C308.23685547 617.31365234 308.23685547 617.31365234 307 617 C307 616.34 307 615.68 307 615 C305.35 615.33 303.7 615.66 302 616 C302 615.34 302 614.68 302 614 C301.27554687 613.95101562 300.55109375 613.90203125 299.8046875 613.8515625 C298.83789062 613.77679687 297.87109375 613.70203125 296.875 613.625 C295.92367188 613.55539062 294.97234375 613.48578125 293.9921875 613.4140625 C290.78538984 612.97030199 288.04900306 612.07863837 285 611 C282.73227293 610.34334281 280.46126644 609.69792968 278.1875 609.0625 C273.46020487 607.72318239 268.78788426 606.30696035 264.140625 604.71484375 C261.77420865 603.92459887 259.39222941 603.20812926 257 602.5 C244.69230769 598.84615385 244.69230769 598.84615385 241 597 C241 596.34 241 595.68 241 595 C240.01 595.33 239.02 595.66 238 596 C238 595.34 238 594.68 238 594 C236.906875 593.855625 235.81375 593.71125 234.6875 593.5625 C231 593 231 593 228 592 C228 591.34 228 590.68 228 590 C227.01 590.33 226.02 590.66 225 591 C225 590.34 225 589.68 225 589 C222.03 588.34 219.06 587.68 216 587 C216 586.34 216 585.68 216 585 C215.38511719 584.86722656 214.77023437 584.73445313 214.13671875 584.59765625 C213.32847656 584.42105469 212.52023437 584.24445312 211.6875 584.0625 C210.88699219 583.88847656 210.08648437 583.71445313 209.26171875 583.53515625 C207 583 207 583 204 582 C204 581.34 204 580.68 204 580 C203.19949219 579.76216797 203.19949219 579.76216797 202.3828125 579.51953125 C196.23648474 577.59481616 190.70332333 574.96714952 185 572 C183.48016821 571.2479725 181.95931316 570.49800986 180.4375 569.75 C175.67955016 567.36724293 170.9608846 564.91165961 166.25 562.4375 C165.52868896 562.06141602 164.80737793 561.68533203 164.06420898 561.29785156 C159.86560171 559.08177158 155.93803445 556.66141889 152 554 C150.09680628 552.91355118 148.1804623 551.84972353 146.25 550.8125 C145.30640625 550.30332031 144.3628125 549.79414062 143.390625 549.26953125 C141.93556714 548.49682895 140.47357042 547.73678521 139 547 C139 546.34 139 545.68 139 545 C138.17113281 544.77828125 137.34226562 544.5565625 136.48828125 544.328125 C132.21405516 542.70076008 128.88924883 540.39605675 125.1875 537.75 C123.76850925 536.75480886 122.34924028 535.76001429 120.9296875 534.765625 C120.25260742 534.28802734 119.57552734 533.81042969 118.87792969 533.31835938 C114.38954881 530.16738996 109.85498395 527.08879492 105.125 524.3125 C103 523 103 523 101.59692383 521.59130859 C99.93781155 519.93803022 98.21559266 518.606085 96.32421875 517.2265625 C92.05140256 514.06274388 87.924816 510.74355742 83.8125 507.375 C82.44413883 506.25765522 81.07565222 505.14046404 79.70703125 504.0234375 C79.0723291 503.50233398 78.43762695 502.98123047 77.78369141 502.44433594 C76.21660881 501.17539799 74.61650992 499.94746245 73.01171875 498.7265625 C72.34785156 498.15679688 71.68398438 497.58703125 71 497 C71 496.34 71 495.68 71 495 C70.13568359 494.61134766 70.13568359 494.61134766 69.25390625 494.21484375 C60.89462043 489.70923216 53.97766145 481.07574704 47.3125 474.4375 C46.50482178 473.63449463 45.69714355 472.83148926 44.86499023 472.00415039 C31 458.10212988 31 458.10212988 31 455 C30.01 454.67 29.02 454.34 28 454 C28 453.34 28 452.68 28 452 C27.34 451.67 26.68 451.34 26 451 C24.65576661 449.34211215 23.32381517 447.67423683 22 446 C21.3915625 445.39671875 20.783125 444.7934375 20.15625 444.171875 C17.74468293 441.7428328 15.56006464 439.19700102 13.375 436.5625 C12.59898437 435.63566406 11.82296875 434.70882813 11.0234375 433.75390625 C9.14314693 431.19482352 8.00990565 428.99170976 7 426 C6.34 426 5.68 426 5 426 C4.71125 425.195625 4.4225 424.39125 4.125 423.5625 C3.26737432 420.8673532 3.26737432 420.8673532 1 420 C-3.00046915 416.72688887 -5.27487747 411.85309092 -7.125 407.125 C-7.79931699 404.82668286 -7.79931699 404.82668286 -10 404 C-10.66 403.34 -11.32 402.68 -12 402 C-12 401.01 -12 400.02 -12 399 C-12.66 399 -13.32 399 -14 399 C-14.27070313 398.26394531 -14.54140625 397.52789063 -14.8203125 396.76953125 C-15.94857571 394.12072788 -17.22028833 392.03238933 -18.875 389.6875 C-21.25376555 386.20906182 -23.25812384 382.73606412 -25.04296875 378.921875 C-26.00978276 376.91300561 -26.00978276 376.91300561 -27.3671875 374.75 C-29.39780551 371.33001177 -31.16948306 367.8111418 -32.9375 364.25 C-33.29013916 363.5398877 -33.64277832 362.82977539 -34.00610352 362.09814453 C-40.93925969 348.0716021 -40.93925969 348.0716021 -42 341 C-42.66 340.67 -43.32 340.34 -44 340 C-43.67 339.34 -43.34 338.68 -43 338 C-43.66 337.67 -44.32 337.34 -45 337 C-44.67 336.34 -44.34 335.68 -44 335 C-44.66 335 -45.32 335 -46 335 C-47.31626692 331.38026598 -48 328.90432869 -48 325 C-48.66 325 -49.32 325 -50 325 C-50.13535156 324.41863281 -50.27070313 323.83726562 -50.41015625 323.23828125 C-50.96223688 321.14329979 -51.645679 319.20192544 -52.4375 317.1875 C-53.84302609 313.50733024 -54.93490925 309.7943858 -56 306 C-56.51655187 304.49852022 -57.03761428 302.99858678 -57.5625 301.5 C-58.86060089 297.67673768 -59.42853962 294.00022263 -60 290 C-60.47508968 288.51264536 -60.97691976 287.03366318 -61.5 285.5625 C-62.98405782 281.3408598 -63.5478743 277.44590274 -64 273 C-64.31275112 271.66168926 -64.64672578 270.32818907 -65 269 C-65.70780763 266.10873703 -66.38830634 263.21177099 -67.0625 260.3125 C-67.24876953 259.54744141 -67.43503906 258.78238281 -67.62695312 257.99414062 C-68.71931973 253.24454663 -69.17157719 248.90617408 -68.97045898 244.03198242 C-69.0018554 241.87237616 -69.43519241 240.07720965 -70 238 C-70.0415671 236.64647145 -70.04172713 235.29102363 -70 233.9375 C-69.79247553 230.09552714 -69.79247553 230.09552714 -71 227 C-72.68300544 211.38329056 -72.181248 195.51669894 -72.20018864 179.8285532 C-72.20314976 177.49612005 -72.20725932 175.16369147 -72.21169281 172.83126068 C-72.22529905 165.50195319 -72.23500385 158.17265652 -72.2388947 150.8433373 C-72.24338464 142.43811209 -72.26100478 134.03304873 -72.2898953 125.62787271 C-72.31158704 119.08640097 -72.32160266 112.5449746 -72.32293582 106.00346732 C-72.32397677 102.11488028 -72.32973379 98.22644683 -72.34775543 94.33789825 C-72.36437126 90.6834576 -72.36632711 87.02928404 -72.35761642 83.3748188 C-72.3564939 81.41772115 -72.3700984 79.46063177 -72.3843689 77.50358582 C-72.32599762 64.96257506 -69.81890344 52.21325168 -64 41 C-63.34 41 -62.68 41 -62 41 C-61.87625 40.38125 -61.7525 39.7625 -61.625 39.125 C-61 37 -61 37 -59 35 C-58.30251417 33.68252676 -57.63040043 32.35085807 -57 31 C-56.01 31 -55.02 31 -54 31 C-54 30.01 -54 29.02 -54 28 C-53.34 28 -52.68 28 -52 28 C-51.74992187 27.41605469 -51.49984375 26.83210937 -51.2421875 26.23046875 C-49.83463972 23.70307949 -48.30301311 22.20696046 -46.125 20.3125 C-45.44695312 19.71050781 -44.76890625 19.10851562 -44.0703125 18.48828125 C-42 17 -42 17 -39.8671875 16.48046875 C-37.59627835 16.11761456 -37.59627835 16.11761456 -36 13 C-34.00577205 12.63371323 -32.00546689 12.29868656 -30 12 C-29.67 11.34 -29.34 10.68 -29 10 C-27.2578125 8.89453125 -27.2578125 8.89453125 -25.125 7.8125 C-24.42632812 7.44769531 -23.72765625 7.08289063 -23.0078125 6.70703125 C-21 6 -21 6 -18 7 C-17.67 6.34 -17.34 5.68 -17 5 C-11.40447021 2.66316955 -6.02839298 1.60684394 0 2 C0 1.34 0 0.68 0 0 Z " fill="#3D3C3A" transform="translate(253,843)"/>
<path d="M0 0 C0.87736816 0.10763672 1.75473633 0.21527344 2.65869141 0.32617188 C31.82187081 4.0538359 59.60279082 15.39220181 85.25 29.4375 C97.59772087 36.14949142 110.09128127 39.60195204 124.0625 36.26953125 C132.14578098 33.25062296 138.17489665 28.40297884 143.3125 21.5625 C144.02974243 20.664104 144.02974243 20.664104 144.76147461 19.74755859 C147.65062342 16.06680313 149.92836686 12.47696506 151.79394531 8.17993164 C153.86952175 4.81770552 155.59340208 2.04758729 159 0 C163.48003969 -0.75254271 167.84463614 -0.57796993 172.37109375 -0.3828125 C173.58438354 -0.35517822 174.79767334 -0.32754395 176.04772949 -0.29907227 C179.03372374 -0.2270852 182.01590116 -0.12652145 185 0 C185.37657529 7.20892612 185.75056327 14.4179822 186.12164211 21.62719345 C186.29420376 24.97825033 186.46776137 28.32924802 186.64282227 31.68017578 C187.3696697 45.6031089 188.04857458 59.52271661 188.515625 73.45703125 C188.89963825 84.89575245 189.47118756 96.31411124 190.12948608 107.7399292 C191.75303616 136.10616737 192.97776589 164.48868713 194.1875 192.875 C194.2554949 194.46790926 194.2554949 194.46790926 194.32486343 196.0929985 C194.6283776 203.20515892 194.93022483 210.3173883 195.23046875 217.4296875 C195.27009609 218.36712233 195.30972343 219.30455715 195.35055161 220.27039909 C195.46101827 222.88841551 195.57085312 225.5064575 195.68041992 228.12451172 C195.72946456 229.28636694 195.72946456 229.28636694 195.77950001 230.47169399 C196 235.7687147 196 235.7687147 196 238 C187.42 238 178.84 238 170 238 C168.35 234.205 166.7 230.41 165 226.5 C145.75836545 182.98314512 123.06088397 140.65757439 90 106 C89.360625 105.29617188 88.72125 104.59234375 88.0625 103.8671875 C63.25618244 77.3997326 22.66035521 56.43254763 -13.6484375 54.5546875 C-37.05580366 53.89350049 -57.49221461 59.6209649 -74.8671875 75.7890625 C-86.33865815 87.13546563 -94.10237304 102.32214987 -94.38061523 118.56054688 C-94.36145784 127.73610605 -94.03347343 135.57505255 -90 144 C-89.50242187 145.07507812 -89.00484375 146.15015625 -88.4921875 147.2578125 C-84.65484996 154.95033566 -79.93378431 160.84409543 -74 167 C-72.80505786 168.38946761 -71.61704757 169.78494002 -70.4375 171.1875 C-66.93138487 175.19562707 -63.06591322 178.57329842 -59 182 C-57.95581421 182.90484746 -56.91294751 183.81121839 -55.87109375 184.71875 C-47.77991633 191.74894064 -39.4942915 198.46484986 -31 205 C-29.81760742 205.91338135 -29.81760742 205.91338135 -28.61132812 206.84521484 C-18.27652157 214.82064725 -7.85976457 222.62738444 2.8515625 230.08984375 C6.39370137 232.56065679 9.88469721 235.09554016 13.36938477 237.64648438 C22.20710725 244.10826343 31.24883458 250.21746945 40.37915039 256.25756836 C46.93047828 260.59796108 53.37157375 265.04552446 59.734375 269.65625 C63.35971669 272.27676561 67.05468943 274.79211329 70.75 277.3125 C85.17755921 287.18969448 99.18780106 297.54789904 112.921875 308.3671875 C114.85823461 309.88861291 116.8021498 311.39957955 118.75 312.90625 C129.7728574 321.4526064 140.34056516 330.49593931 150.66015625 339.87890625 C152.1988307 341.27373134 153.74810611 342.65696628 155.30859375 344.02734375 C166.80780595 354.16704318 177.56228313 364.91145031 187 377 C187.62648438 377.73605469 188.25296875 378.47210937 188.8984375 379.23046875 C209.71367878 403.9113977 222.46236335 434.68177242 229 466 C229.16806152 466.76473633 229.33612305 467.52947266 229.50927734 468.31738281 C232.31213202 481.53291521 232.28607285 494.86429457 232.3125 508.3125 C232.31617584 509.21342377 232.31985168 510.11434753 232.32363892 511.04257202 C232.35527269 525.91366188 231.29652569 540.25289035 228.0625 554.8125 C227.90587891 555.55435547 227.74925781 556.29621094 227.58789062 557.06054688 C217.38946774 604.31459395 193.06762913 653.98193182 155 685 C153.93475988 685.90088093 152.86966945 686.80193888 151.8046875 687.703125 C142.44827548 695.51202264 132.5727625 701.96206093 122 708 C121.31212402 708.39815918 120.62424805 708.79631836 119.91552734 709.20654297 C98.80821996 721.3222898 75.26807771 729.75481044 51.2980957 733.88574219 C49.16848806 734.25328118 47.04229493 734.63715086 44.91601562 735.0234375 C10.84597573 741.12620793 -22.50622876 737.63823189 -56 730 C-56.90282715 729.80035645 -57.8056543 729.60071289 -58.73583984 729.39501953 C-84.0688785 723.76601332 -108.60417898 714.59388916 -132.9152832 705.64672852 C-134.12014626 705.20666222 -134.12014626 705.20666222 -135.34934998 704.75770569 C-136.843277 704.21185658 -138.33559868 703.6615815 -139.82582092 703.10569763 C-149.8189956 699.46444943 -161.41309069 696.38459883 -171.6875 700.5625 C-186.53990743 708.2964563 -194.10962459 721.3396268 -201 736 C-209.25 736 -217.5 736 -226 736 C-226.12004395 733.49889648 -226.24008789 730.99779297 -226.36376953 728.42089844 C-226.63240587 722.82410535 -226.90114613 717.22731727 -227.17008972 711.63053894 C-227.2713532 709.52314255 -227.37261558 707.4157461 -227.47387695 705.30834961 C-227.52629012 704.21758212 -227.57870329 703.12681463 -227.63270473 702.00299358 C-227.96281947 695.13123563 -228.29222399 688.259444 -228.62115955 681.38762951 C-229.84566096 655.81245568 -231.08282159 630.23800664 -232.35208488 604.66501939 C-232.59714003 599.72597434 -232.84115565 594.78687878 -233.08447266 589.8477478 C-233.11866531 589.15370979 -233.15285796 588.45967179 -233.18808675 587.74460232 C-233.32550545 584.95473089 -233.46288242 582.16485742 -233.60012579 579.37497735 C-234.00313942 571.18263301 -234.40944882 562.99046956 -234.8215093 554.7985751 C-235.11357541 548.98546823 -235.39964165 543.17207694 -235.68374062 537.35857582 C-235.80083862 534.98210132 -235.91985637 532.60572041 -236.04106712 530.22945213 C-236.81005436 515.13031284 -237.10858736 500.12051043 -237 485 C-228.75 485 -220.5 485 -212 485 C-211.33355469 486.80339844 -210.66710938 488.60679687 -209.98046875 490.46484375 C-187.7629268 550.11340578 -157.91227835 604.77772275 -106.09130859 643.43945312 C-104.77600006 644.42094415 -103.46340967 645.40609906 -102.15478516 646.39648438 C-84.28639403 659.89996211 -63.6132798 670.9570185 -42 677 C-41.29423828 677.19754883 -40.58847656 677.39509766 -39.86132812 677.59863281 C-15.49158721 684.14652714 11.58369827 683.22649325 34 671 C37.54491911 668.88640758 40.78740023 666.58698824 44 664 C44.75539063 663.41863281 45.51078125 662.83726562 46.2890625 662.23828125 C59.27438134 651.59567457 68.73870082 634.60631119 71 618 C73.26171291 590.24521145 66.70357396 565.23026933 48.4453125 543.72265625 C41.75717389 536.27595879 34.68197386 529.52421159 26.8515625 523.29296875 C24.3752865 521.30177147 21.96555031 519.25263933 19.56738281 517.16870117 C11.55245095 510.23366278 3.04474305 504.02484784 -5.52832031 497.80273438 C-7.95406276 496.0335046 -10.36594924 494.24709526 -12.7734375 492.453125 C-22.10065388 485.50851403 -31.55755601 478.81030646 -41.1796875 472.28125 C-54.23177315 463.42010331 -67.08150926 454.27079646 -79.84765625 445.00390625 C-82.38624995 443.16245434 -84.93239327 441.33367116 -87.49609375 439.52734375 C-97.39794159 432.54804218 -107.01035702 425.20166846 -116.61914062 417.82568359 C-118.63313208 416.28132058 -120.65091378 414.74225066 -122.671875 413.20703125 C-139.06453635 400.70864641 -155.06807145 387.63193148 -170.17578125 373.6015625 C-172.70574469 371.27105676 -175.28163078 369.00915035 -177.875 366.75 C-210.41679366 337.38937527 -233.65878776 296.71564042 -243 254 C-243.28617188 252.76507812 -243.57234375 251.53015625 -243.8671875 250.2578125 C-246.10375895 240.35299606 -247.14734318 230.71993557 -247.203125 220.57421875 C-247.21371445 219.28199654 -247.21371445 219.28199654 -247.22451782 217.96366882 C-247.44899709 182.55355948 -247.44899709 182.55355948 -244 167 C-243.81195801 166.08831055 -243.62391602 165.17662109 -243.43017578 164.23730469 C-237.54380059 136.11195113 -225.9814247 108.2914623 -209 85 C-208.56606934 84.39913574 -208.13213867 83.79827148 -207.68505859 83.17919922 C-194.43115867 64.88745329 -180.21055187 48.4914577 -162 35 C-161.44135254 34.58105469 -160.88270508 34.16210938 -160.30712891 33.73046875 C-131.58387412 12.47272952 -96.10888803 2.48244651 -61 -1 C-59.71480469 -1.13148438 -58.42960937 -1.26296875 -57.10546875 -1.3984375 C-38.10547932 -2.97643887 -18.89075705 -2.46845808 0 0 Z " fill="#444240" transform="translate(1321,886)"/>
<path d="M0 0 C4.66572058 0.0114441 9.33121425 0.00458622 13.99692726 -0.00688076 C50.11265766 -0.08228868 50.11265766 -0.08228868 67.08978271 2.00518799 C69.12999909 2.25138754 71.17004174 2.46081137 73.21582031 2.65478516 C106.38493773 5.85154722 138.65982892 13.66385796 170.20751953 24.26074219 C172.36362004 24.96432547 174.51986867 25.66745501 176.67626953 26.37011719 C213.38641774 38.51739175 248.22363104 55.1295058 281.20751953 75.26074219 C282.05878418 75.77733398 282.91004883 76.29392578 283.78710938 76.82617188 C305.64391347 90.14816991 325.80414465 105.61234168 345.20751953 122.26074219 C346.42217622 123.29872154 347.63702461 124.33647661 348.85205078 125.37402344 C355.02596218 130.65190533 355.02596218 130.65190533 357.49731445 132.7878418 C358.63451418 133.76724593 359.77792069 134.73949052 360.92749023 135.7043457 C367.26155177 141.09903725 373.09353543 146.99564136 378.9621582 152.88500977 C380.76614038 154.69435151 382.57540618 156.49828538 384.38525391 158.30175781 C390.20321603 164.11561436 395.93969377 169.93543467 401.20751953 176.26074219 C401.76076904 176.91792236 402.31401855 177.57510254 402.8840332 178.25219727 C410.10155728 186.8707641 417.16318388 195.5992325 423.93164062 204.57568359 C425.3120902 206.3988491 426.70675082 208.2106398 428.10205078 210.02246094 C446.73459212 234.35638542 461.9060108 261.20011935 475.58251953 288.57324219 C475.99516052 289.39878601 476.40780151 290.22432983 476.83294678 291.07489014 C492.8373364 323.20338755 504.10306726 356.29891256 512.20751953 391.26074219 C512.47161621 392.37852051 512.73571289 393.49629883 513.0078125 394.64794922 C520.99686628 428.7138279 524.03112532 461.52049426 524.16796875 496.453125 C524.19392093 502.34095895 524.27772233 508.22672577 524.37268066 514.11380005 C524.99879523 554.42407961 523.00217882 593.14167637 512.73223877 632.26190186 C512.18127579 634.36071383 511.63747971 636.46131517 511.09375 638.56201172 C490.38338604 718.12370852 453.67750941 790.26969411 396.47314453 853.74902344 C395.23494984 855.12171169 394.00319882 856.50077013 392.80493164 857.90844727 C387.77152204 863.79608492 382.34920829 869.27136477 376.86499023 874.73364258 C375.27292987 876.32034165 373.68628963 877.91231961 372.10009766 879.50488281 C366.64161331 884.96725588 361.10241304 890.26681134 355.20751953 895.26074219 C354.13586894 896.19801653 353.06550666 897.13676642 351.99658203 898.07714844 C338.37610918 909.93945096 324.09895905 921.03748708 309.20751953 931.26074219 C308.36511719 931.84049805 307.52271484 932.42025391 306.65478516 933.01757812 C291.89357419 943.13059983 276.84232913 952.55747892 261.20751953 961.26074219 C260.31371582 961.75993164 259.41991211 962.25912109 258.49902344 962.7734375 C228.84535955 979.17293655 197.42484433 991.8999108 165.20751953 1002.26074219 C163.3923584 1002.84758789 163.3923584 1002.84758789 161.54052734 1003.44628906 C132.52059908 1012.61396706 101.81283981 1017.59041337 71.70751953 1021.76074219 C70.66345947 1021.90866211 69.61939941 1022.05658203 68.54370117 1022.20898438 C46.93385992 1024.95061981 24.88144924 1024.50146817 3.13061523 1024.5559082 C-0.00695534 1024.56471207 -3.14407503 1024.5855076 -6.28149414 1024.61743164 C-94.87017974 1025.49688613 -184.72387487 1000.97343885 -301.79248047 929.26074219 C-302.60426758 928.68839844 -303.41605469 928.11605469 -304.25244141 927.52636719 C-319.78398768 916.53771944 -334.57201127 904.90028096 -348.79248047 892.26074219 C-349.77990234 891.38675781 -350.76732422 890.51277344 -351.78466797 889.61230469 C-359.47960293 882.65216458 -366.82172978 875.33519002 -374.16748047 868.01074219 C-374.68994354 867.49095795 -375.21240662 866.97117371 -375.7507019 866.43563843 C-381.65106279 860.55823118 -387.40453221 854.61803385 -392.79248047 848.26074219 C-393.77692033 847.13075688 -394.76256564 846.00182044 -395.74951172 844.87402344 C-406.97053708 831.94082438 -417.07234524 818.34884562 -426.79248047 804.26074219 C-427.51540283 803.21539307 -427.51540283 803.21539307 -428.25292969 802.14892578 C-465.37291883 748.2099236 -491.7290099 688.23026824 -505.79248047 624.26074219 C-506.02515625 623.20483887 -506.25783203 622.14893555 -506.49755859 621.06103516 C-509.29901218 608.06939391 -511.36066285 595.00123411 -513.04248047 581.82324219 C-513.20578857 580.55706055 -513.36909668 579.29087891 -513.53735352 577.98632812 C-516.02538627 557.44050623 -515.95224126 536.87997355 -515.92285156 516.21923828 C-515.91829701 513.00046949 -515.91828408 509.78175705 -515.92285156 506.56298828 C-515.95857452 481.36660841 -515.60477282 456.7668395 -511.66748047 431.82324219 C-511.51253113 430.82461151 -511.35758179 429.82598083 -511.19793701 428.79708862 C-508.53639198 411.72260634 -505.29723558 394.9567197 -500.79248047 378.26074219 C-500.44958984 376.9874707 -500.10669922 375.71419922 -499.75341797 374.40234375 C-481.33625975 306.65056616 -448.51463191 240.35949153 -402.28857422 187.15527344 C-399.97086361 184.46759963 -397.75167854 181.72516714 -395.54248047 178.94824219 C-385.91907718 167.17690881 -375.07855976 156.45648992 -364.35498047 145.69824219 C-363.43177002 144.77035889 -362.50855957 143.84247559 -361.55737305 142.88647461 C-357.01008931 138.34988746 -352.41282929 133.9430879 -347.53735352 129.76049805 C-345.10939385 127.67361457 -342.76801359 125.49658127 -340.41748047 123.32324219 C-335.37190175 118.7325927 -330.17803701 114.44377035 -324.79248047 110.26074219 C-323.67501095 109.36656327 -322.55784467 108.4720053 -321.44091797 107.57714844 C-312.17088462 100.23917256 -302.49681934 93.56750018 -292.66748047 87.01074219 C-291.73107727 86.38431824 -291.73107727 86.38431824 -290.77575684 85.74523926 C-221.39387229 39.42231996 -139.34342439 8.69830452 0 0 Z M-11.9140625 51.36914062 C-93.82282247 54.67006727 -175.41896236 82.562024 -244.79248047 125.26074219 C-245.8042334 125.88158691 -246.81598633 126.50243164 -247.85839844 127.14208984 C-264.28674842 137.26997123 -279.61369005 148.27339616 -294.20703125 160.89306641 C-296.92914732 163.24127925 -299.6734801 165.56317947 -302.41748047 167.88574219 C-302.95840332 168.344729 -303.49932617 168.80371582 -304.05664062 169.27661133 C-307.45282988 172.15161339 -310.89085054 174.96757 -314.35498047 177.76074219 C-323.17044678 184.95467747 -331.52843416 192.47813447 -338.79248047 201.26074219 C-340.02179565 202.70235686 -341.25117592 204.14391636 -342.48144531 205.5847168 C-344.93295006 208.46455947 -347.36319834 211.36214983 -349.79248047 214.26074219 C-350.34387695 214.9178418 -350.89527344 215.57494141 -351.46337891 216.25195312 C-365.38340276 232.87886686 -377.99819095 250.06013006 -389.79248047 268.26074219 C-390.60652344 269.50718506 -390.60652344 269.50718506 -391.43701172 270.77880859 C-425.65744505 323.43123323 -447.5830836 382.94282658 -458.33203125 444.65722656 C-458.81519066 447.38915232 -459.3335822 450.1132531 -459.85107422 452.83886719 C-464.79356463 479.9193153 -465.79839154 507.83376579 -463.79248047 535.26074219 C-463.73576172 536.03804687 -463.67904297 536.81535156 -463.62060547 537.61621094 C-463.20038324 542.85943832 -462.52644848 548.05323914 -461.79248047 553.26074219 C-461.63263672 554.42283203 -461.47279297 555.58492187 -461.30810547 556.78222656 C-454.4648573 605.98029284 -441.86421455 653.43787363 -421.01220703 698.60693359 C-419.92352032 700.97563346 -418.86388144 703.35430344 -417.81591797 705.74121094 C-412.14615048 718.46892351 -404.95062972 730.32710223 -397.79248047 742.26074219 C-397.28749023 743.10910645 -396.7825 743.9574707 -396.26220703 744.83154297 C-387.27582004 759.91824523 -377.513383 774.34715125 -366.79248047 788.26074219 C-366.36467285 788.82003418 -365.93686523 789.37932617 -365.49609375 789.95556641 C-359.95645106 797.18682487 -354.25750693 804.12819395 -348.06201172 810.81152344 C-346.07867585 812.95188762 -344.14287858 815.12011126 -342.22998047 817.32324219 C-341.66923828 817.96390625 -341.10849609 818.60457031 -340.53076172 819.26464844 C-339.33261477 820.64049808 -338.14298492 822.02379559 -336.96044922 823.41308594 C-325.97483539 836.03708959 -313.24869023 847.12704271 -300.44677734 857.86376953 C-298.79411212 859.25936433 -297.15873662 860.67295847 -295.52685547 862.09277344 C-288.56436024 868.12574562 -281.36313118 873.61137941 -273.79443359 878.859375 C-271.62744836 880.37626466 -269.48303404 881.92204355 -267.33935547 883.47167969 C-190.74179143 938.50682167 -100.24745989 966.51352288 33.23583984 971.62011719 C36.64855937 971.20740579 40.06451958 970.82892338 43.48095703 970.44824219 C95.56127057 964.4750803 146.17542024 951.36703004 194.20751953 930.26074219 C195.26471191 929.79796875 196.3219043 929.33519531 197.41113281 928.85839844 C227.22955186 915.71068029 254.97014035 899.17994682 281.14208984 879.78369141 C283.15023251 878.3029829 285.17178311 876.84311098 287.19970703 875.38964844 C299.44676387 866.58533405 310.70720894 856.86289398 321.75 846.60498047 C323.15351197 845.31055218 324.57281836 844.03331365 325.99267578 842.75683594 C338.92287514 831.10720652 351.51477636 819.0195049 362.20751953 805.26074219 C363.18050024 804.0729034 364.15736257 802.88823796 365.13720703 801.70605469 C388.75589676 773.16500549 408.60798072 742.36267964 425.20751953 709.26074219 C425.65369629 708.37241699 426.09987305 707.4840918 426.55957031 706.56884766 C451.46411786 656.601717 466.90497648 600.77373905 472.20751953 545.26074219 C472.36329468 543.64921265 472.36329468 543.64921265 472.5222168 542.00512695 C473.2941129 533.15537585 473.41018632 524.32442377 473.39501953 515.44824219 C473.39375061 514.67774536 473.39248169 513.90724854 473.39117432 513.11340332 C473.27627814 476.28395635 467.40531021 439.87584217 458.20751953 404.26074219 C457.91151855 403.07931641 457.61551758 401.89789062 457.31054688 400.68066406 C449.99072385 371.59118908 439.28293121 344.22323458 426.20751953 317.26074219 C425.31680273 315.38708791 424.4261753 313.51339114 423.53564453 311.63964844 C408.18910059 279.76649465 388.02416106 251.3507675 365.69580078 224.08544922 C364.38883294 222.48304147 363.09404932 220.870712 361.80126953 219.25683594 C356.82271223 213.06069668 351.55584705 207.20626302 346.12939453 201.40527344 C343.51850358 198.61141588 340.98398434 195.75632893 338.45751953 192.88574219 C334.63275234 188.63221995 330.57945759 184.93714465 326.20751953 181.26074219 C324.47209704 179.76148248 322.74193572 178.25627634 321.01196289 176.75073242 C319.05069071 175.04556968 317.08459297 173.34610732 315.11767578 171.64746094 C312.67644439 169.53779174 310.24653824 167.41659554 307.82861328 165.28027344 C285.98818057 146.09059864 261.6169949 129.36105718 236.20751953 115.26074219 C235.21333008 114.70563965 234.21914062 114.15053711 233.19482422 113.57861328 C159.32652315 72.54430314 72.97433027 48.42135036 -11.9140625 51.36914062 Z " fill="#808080" transform="translate(1308.79248046875,747.7392578125)"/>
</svg>
